<?xml version="1.0" encoding="UTF-8" standalone="no"?>
<!-- Created with Inkscape (http://www.inkscape.org/) -->

<svg
   width="200mm"
   height="50mm"
   viewBox="0 0 200 50.000001"
   version="1.1"
   id="svg5"
   inkscape:version="1.3.2 (091e20ef0f, 2023-11-25, custom)"
   sodipodi:docname="archlinux-logo-text-dark.svg"
   xmlns:inkscape="http://www.inkscape.org/namespaces/inkscape"
   xmlns:sodipodi="http://sodipodi.sourceforge.net/DTD/sodipodi-0.dtd"
   xmlns="http://www.w3.org/2000/svg"
   xmlns:svg="http://www.w3.org/2000/svg">
  <sodipodi:namedview
     id="namedview7"
     pagecolor="#ffffff"
     bordercolor="#666666"
     borderopacity="1.0"
     inkscape:pageshadow="2"
     inkscape:pageopacity="0.0"
     inkscape:pagecheckerboard="0"
     inkscape:document-units="mm"
     showgrid="false"
     inkscape:zoom="0.38663018"
     inkscape:cx="210.79575"
     inkscape:cy="-121.5632"
     inkscape:window-width="1366"
     inkscape:window-height="700"
     inkscape:window-x="0"
     inkscape:window-y="0"
     inkscape:window-maximized="1"
     inkscape:current-layer="layer1"
     inkscape:showpageshadow="2"
     inkscape:deskcolor="#d1d1d1">
    <inkscape:grid
       type="xygrid"
       id="grid824"
       originx="-21.156764"
       originy="-52.895329"
       spacingy="1"
       spacingx="1"
       units="mm"
       visible="false" />
  </sodipodi:namedview>
  <defs
     id="defs2" />
  <g
     inkscape:label="レイヤー 1"
     inkscape:groupmode="layer"
     id="layer1"
     transform="translate(-21.156763,-52.89533)"
     sodipodi:insensitive="true">
    <path
       id="path974"
       style="fill:#00ffff;stroke:none;stroke-width:0.208065px;stroke-linecap:butt;stroke-linejoin:miter;stroke-opacity:1"
       d="M 47.49826,55.394974 C 36.769252,55.458728 26.795281,76.470658 26.965663,89.150537 l 5.774842,11.244793 C 29.952062,91.55144 35.837369,82.738421 48.140081,70.034907 60.442975,82.738569 66.328118,91.551892 63.539656,100.39584 l 5.774843,-11.244787 c 0.170382,-12.679879 -9.80359,-33.691811 -20.532597,-33.75556 -0.213725,-0.0013 -0.42757,0.0056 -0.641821,0.02119 v -5.24e-4 c -0.214252,-0.01558 -0.428096,-0.02246 -0.641821,-0.02119 z m 0.641821,0.03669 v 5.29e-4 a 3.969,7.2684377 0 0 1 3.431831,3.633886 3.969,7.2684377 0 0 1 0,7.268289 3.969,7.2684377 0 0 1 -3.431831,3.633877 v -5.29e-4 a 3.969,7.2684377 0 0 1 -3.431831,-3.633888 3.969,7.2684377 0 0 1 0,-7.268289 3.969,7.2684377 0 0 1 3.431831,-3.633875 z" />
    <text
       xml:space="preserve"
       style="font-size:15.875px;line-height:1.25;font-family:'Noto Serif CJK JP';-inkscape-font-specification:'Noto Serif CJK JP';letter-spacing:0px;word-spacing:0px;fill:#ffffff;stroke-width:0.264583"
       x="71.965805"
       y="82.975327"
       id="text3163"><tspan
         sodipodi:role="line"
         id="tspan3161"
         style="font-weight:bold;font-size:15.875px;fill:#ffffff;stroke-width:0.264583"
         x="71.965805"
         y="82.975327">Alis Linux/GNU/X</tspan></text>
  </g>
</svg>
